<svg xmlns="http://www.w3.org/2000/svg" viewBox="0 0 307.11 90.51"><defs><style>.cls-1{fill:#005ab3;}</style></defs><title>blue3stars</title><g id="Layer_2" data-name="Layer 2"><g id="Layer_1-2" data-name="Layer 1"><polygon class="cls-1" points="24.36 57.6 1.07 34.99 33.18 30.26 47.48 1.13 61.91 30.2 94.03 34.8 70.84 57.5 76.39 89.48 47.63 74.44 18.94 89.59 24.36 57.6"/><path d="M47.49,2.26,61.34,30.19l.24.47.52.07L93,35.16,70.68,57l-.38.37.09.52,5.33,30.72L48.1,74.11l-.47-.24-.46.25L19.6,88.68l5.21-30.74.09-.52-.38-.36L2.15,35.34,33,30.79l.52-.07.24-.48,13.74-28m0-2.26L32.85,29.8,0,34.64,23.82,57.77,18.28,90.51,47.63,75,77.05,90.39,71.38,57.68,95.11,34.45,62.24,29.74,47.48,0Z"/><polygon class="cls-1" points="130.36 57.6 107.08 34.99 139.18 30.26 153.49 1.13 167.91 30.2 200.03 34.8 176.84 57.5 182.39 89.48 153.63 74.44 124.94 89.59 130.36 57.6"/><path d="M153.49,2.26l13.85,27.93.24.47.52.07L199,35.16,176.68,57l-.38.37.09.52,5.33,30.72L154.1,74.11l-.47-.24-.46.25L125.6,88.68l5.21-30.74.09-.52-.38-.36L108.15,35.34,139,30.79l.52-.07.24-.48,13.74-28m0-2.26L138.85,29.8,106,34.64l23.82,23.13-5.54,32.74L153.63,75l29.42,15.39-5.67-32.71,23.73-23.23-32.87-4.71L153.48,0Z"/><polygon class="cls-1" points="236.36 57.6 213.07 34.99 245.18 30.26 259.49 1.13 273.91 30.2 306.03 34.8 282.84 57.5 288.39 89.48 259.63 74.44 230.94 89.59 236.36 57.6"/><path d="M259.49,2.26l13.85,27.93.24.47.52.07L305,35.16,282.68,57l-.38.37.09.52,5.33,30.72L260.1,74.11l-.47-.24-.46.25L231.6,88.68l5.21-30.74.09-.52-.38-.36L214.15,35.34,245,30.79l.52-.07.24-.48,13.74-28m0-2.26L244.85,29.8,212,34.64l23.82,23.13-5.54,32.74L259.63,75l29.42,15.39-5.67-32.71,23.73-23.23-32.87-4.71L259.48,0Z"/></g></g></svg>