<svg xmlns="http://www.w3.org/2000/svg" viewBox="0 0 1286 330.36"><defs><style>.cls-1,.cls-25,.cls-30,.cls-31{fill:#203655;}.cls-1,.cls-11,.cls-13,.cls-16,.cls-18,.cls-2,.cls-20,.cls-22,.cls-5,.cls-7,.cls-9{stroke:#edcbc3;stroke-miterlimit:10;}.cls-10,.cls-12,.cls-14,.cls-17,.cls-19,.cls-2,.cls-21,.cls-24,.cls-4,.cls-6,.cls-8{fill:#edcbc3;}.cls-10,.cls-11,.cls-12,.cls-13,.cls-14,.cls-16,.cls-17,.cls-18,.cls-19,.cls-20,.cls-21,.cls-22,.cls-3,.cls-4,.cls-5,.cls-6,.cls-7,.cls-8,.cls-9{isolation:isolate;}.cls-10,.cls-11,.cls-12,.cls-13,.cls-14,.cls-16,.cls-17,.cls-18,.cls-19,.cls-20,.cls-21,.cls-22,.cls-23,.cls-4,.cls-5,.cls-6,.cls-7,.cls-8,.cls-9{font-size:60px;}.cls-10,.cls-11,.cls-12,.cls-13,.cls-14,.cls-16,.cls-17,.cls-18,.cls-19,.cls-20,.cls-21,.cls-22,.cls-4,.cls-5,.cls-6,.cls-7,.cls-8,.cls-9{font-family:KozGoPro-Regular-83pv-RKSJ-H, Kozuka Gothic Pro;}.cls-4,.cls-5{letter-spacing:-0.15em;}.cls-11,.cls-13,.cls-16,.cls-18,.cls-20,.cls-22,.cls-5,.cls-7,.cls-9{fill:none;}.cls-6,.cls-7{letter-spacing:-0.08em;}.cls-10,.cls-11{letter-spacing:-0.04em;}.cls-12,.cls-13{letter-spacing:-0.04em;}.cls-14,.cls-16{letter-spacing:-0.06em;}.cls-15{letter-spacing:-0.04em;}.cls-17,.cls-18{letter-spacing:-0.15em;}.cls-19,.cls-20{letter-spacing:-0.29em;}.cls-21,.cls-22{letter-spacing:-0.13em;}.cls-23{font-family:KozGoPr6N-Regular-83pv-RKSJ-H, Kozuka Gothic Pr6N;}.cls-25,.cls-29{font-size:48px;font-family:MyriadPro-Regular, Myriad Pro;}.cls-26{letter-spacing:-0.01em;}.cls-27{letter-spacing:0em;}.cls-28,.cls-31{letter-spacing:-0.01em;}.cls-29{fill:#d0003d;}</style></defs><title>duration2_sp</title><g id="Layer_2" data-name="Layer 2"><g id="Layer_1-2" data-name="Layer 1"><g id="Layer_2-2" data-name="Layer 2"><g id="Layer_1-2-2" data-name="Layer 1-2"><g id="Layer_2-2-2" data-name="Layer 2-2"><g id="Layer_1-2-2-2" data-name="Layer 1-2-2"><polygon class="cls-1" points="0.5 70.69 0.5 329.86 236.88 329.86 273.33 214.74 231.1 70.69 0.5 70.69"/><polyline class="cls-1" points="255.24 329.86 840.68 329.86 877.13 213 835.48 70.69 248.88 70.69 290.53 213"/><polygon class="cls-1" points="856.25 70.69 897.91 211.84 861.46 329.86 1285.5 329.86 1285.5 70.69 856.25 70.69"/></g></g><polygon class="cls-1" points="0.5 70.69 0.5 329.86 413.16 329.86 469.26 200.28 415.97 70.69 0.5 70.69"/><polygon class="cls-1" points="436.54 70.69 487.03 200.28 430 329.86 840.68 329.86 877.13 213 835.48 70.69 436.54 70.69"/><polygon class="cls-2" points="415.97 70.69 436.54 70.69 487.03 200.28 430 329.86 413.16 329.86 469.26 200.28 415.97 70.69"/><g class="cls-3"><text class="cls-4" transform="translate(53.66 160.4)">ラ</text><text class="cls-5" transform="translate(53.66 160.4)">ラ</text><text class="cls-6" transform="translate(107.66 160.4)">フ</text><text class="cls-7" transform="translate(107.66 160.4)">フ</text><text class="cls-8" transform="translate(166.46 160.4)">デ</text><text class="cls-9" transform="translate(166.46 160.4)">デ</text><text class="cls-10" transform="translate(227.66 160.4)">ザ</text><text class="cls-11" transform="translate(227.66 160.4)">ザ</text><text class="cls-4" transform="translate(284.06 160.4)">イ</text><text class="cls-5" transform="translate(284.06 160.4)">イ</text><text class="cls-12" transform="translate(336.26 160.4)">ン</text><text class="cls-13" transform="translate(336.26 160.4)">ン</text></g><text class="cls-8" transform="translate(59.66 249.05)">素材制作</text><text class="cls-9" transform="translate(59.66 249.05)">素材制作</text><g class="cls-3"><text class="cls-14" transform="translate(510.53 215.36)">コ<tspan class="cls-15" x="56.4" y="0">ー</tspan></text><text class="cls-16" transform="translate(510.53 215.36)">コ<tspan class="cls-15" x="56.4" y="0">ー</tspan></text><text class="cls-17" transform="translate(628.13 215.36)">デ</text><text class="cls-18" transform="translate(628.13 215.36)">デ</text><text class="cls-19" transform="translate(673.73 215.36)">ィ</text><text class="cls-20" transform="translate(673.73 215.36)">ィ</text><text class="cls-21" transform="translate(727.13 215.36)">ン</text><text class="cls-22" transform="translate(727.13 215.36)">ン</text><text class="cls-8" transform="translate(779.33 215.36)">グ</text><text class="cls-9" transform="translate(779.33 215.36)">グ</text></g><g class="cls-3"><text class="cls-3"></text><text class="cls-3"></text><text class="cls-3"></text><text class="cls-3"></text><text class="cls-3"></text><text class="cls-3"></text><text class="cls-3"></text><text class="cls-3"></text><text class="cls-3"></text><text class="cls-3"></text></g></g></g><text></text><text class="cls-23" transform="translate(943.85 205.82)">　<tspan class="cls-24" x="60" y="0">微調整</tspan></text><text></text><text></text><text></text><text class="cls-25" transform="translate(243.88 56.21)">2 <tspan class="cls-26" x="34.8" y="0">w</tspan><tspan class="cls-27" x="69.65" y="0">eeks</tspan></text><text></text><text class="cls-25" transform="translate(668.67 56.21)">3 <tspan class="cls-28" x="34.8" y="0">w</tspan><tspan x="69.65" y="0">eeks</tspan></text><text></text><text class="cls-29" transform="translate(1116.17 56.21)">4<tspan class="cls-30" x="24.62" y="0"> </tspan><tspan class="cls-31" x="34.8" y="0">w</tspan><tspan class="cls-30" x="69.65" y="0">eeks</tspan></text></g></g></svg>