<svg xmlns="http://www.w3.org/2000/svg" viewBox="0 0 1286 335.76"><defs><style>.cls-1,.cls-29,.cls-30,.cls-31,.cls-32,.cls-33,.cls-36{fill:#203655;}.cls-1,.cls-11,.cls-13,.cls-16,.cls-18,.cls-2,.cls-20,.cls-22,.cls-25,.cls-27,.cls-5,.cls-7,.cls-9{stroke:#edcbc3;stroke-miterlimit:10;}.cls-10,.cls-12,.cls-14,.cls-17,.cls-19,.cls-2,.cls-21,.cls-23,.cls-26,.cls-4,.cls-6,.cls-8{fill:#edcbc3;}.cls-10,.cls-11,.cls-12,.cls-13,.cls-14,.cls-16,.cls-17,.cls-18,.cls-19,.cls-20,.cls-21,.cls-22,.cls-23,.cls-25,.cls-26,.cls-27,.cls-3,.cls-4,.cls-5,.cls-6,.cls-7,.cls-8,.cls-9{isolation:isolate;}.cls-10,.cls-11,.cls-12,.cls-13,.cls-14,.cls-16,.cls-17,.cls-18,.cls-19,.cls-20,.cls-21,.cls-22,.cls-23,.cls-25,.cls-26,.cls-27,.cls-4,.cls-5,.cls-6,.cls-7,.cls-8,.cls-9{font-size:60px;font-family:KozGoPro-Regular-83pv-RKSJ-H, Kozuka Gothic Pro;}.cls-4,.cls-5{letter-spacing:-0.15em;}.cls-11,.cls-13,.cls-16,.cls-18,.cls-20,.cls-22,.cls-25,.cls-27,.cls-5,.cls-7,.cls-9{fill:none;}.cls-6,.cls-7{letter-spacing:-0.08em;}.cls-10,.cls-11{letter-spacing:-0.04em;}.cls-12,.cls-13{letter-spacing:-0.04em;}.cls-14,.cls-16{letter-spacing:-0.06em;}.cls-15{letter-spacing:-0.04em;}.cls-17,.cls-18{letter-spacing:-0.15em;}.cls-19,.cls-20{letter-spacing:-0.29em;}.cls-21,.cls-22{letter-spacing:-0.13em;}.cls-23,.cls-25{letter-spacing:-0.1em;}.cls-24{letter-spacing:-0.07em;}.cls-26,.cls-27{letter-spacing:-0.02em;}.cls-28,.cls-33,.cls-35{font-size:48px;font-family:MyriadPro-Regular, Myriad Pro;}.cls-29{letter-spacing:0em;}.cls-30{letter-spacing:-0.01em;}.cls-31{letter-spacing:-0.01em;}.cls-34{letter-spacing:-0.01em;}.cls-35{fill:#d0003d;}.cls-36{letter-spacing:-0.01em;}</style></defs><title>duration_sp</title><g id="Layer_2" data-name="Layer 2"><g id="Layer_1-2" data-name="Layer 1"><g id="Layer_2-2" data-name="Layer 2"><g id="Layer_1-2-2" data-name="Layer 1-2"><g id="Layer_2-2-2" data-name="Layer 2-2"><g id="Layer_1-2-2-2" data-name="Layer 1-2-2"><polygon class="cls-1" points="0.5 76.09 0.5 335.26 236.88 335.26 273.33 220.14 231.1 76.09 0.5 76.09"/><polyline class="cls-1" points="255.24 335.26 840.68 335.26 877.13 218.4 835.48 76.09 248.88 76.09 290.53 218.4"/><polygon class="cls-1" points="856.25 76.09 897.91 217.25 861.46 335.26 1285.5 335.26 1285.5 76.09 856.25 76.09"/></g></g><polygon class="cls-1" points="0.5 76.09 0.5 335.26 413.16 335.26 469.26 205.68 415.97 76.09 0.5 76.09"/><polygon class="cls-1" points="436.54 76.09 487.03 205.68 430 335.26 840.68 335.26 877.13 218.4 835.48 76.09 436.54 76.09"/><polygon class="cls-2" points="415.97 76.09 436.54 76.09 487.03 205.68 430 335.26 413.16 335.26 469.26 205.68 415.97 76.09"/><g class="cls-3"><text class="cls-4" transform="translate(53.66 165.8)">ラ</text><text class="cls-5" transform="translate(53.66 165.8)">ラ</text><text class="cls-6" transform="translate(107.66 165.8)">フ</text><text class="cls-7" transform="translate(107.66 165.8)">フ</text><text class="cls-8" transform="translate(166.46 165.8)">デ</text><text class="cls-9" transform="translate(166.46 165.8)">デ</text><text class="cls-10" transform="translate(227.66 165.8)">ザ</text><text class="cls-11" transform="translate(227.66 165.8)">ザ</text><text class="cls-4" transform="translate(284.06 165.8)">イ</text><text class="cls-5" transform="translate(284.06 165.8)">イ</text><text class="cls-12" transform="translate(336.26 165.8)">ン</text><text class="cls-13" transform="translate(336.26 165.8)">ン</text></g><text class="cls-8" transform="translate(59.66 254.45)">素材制作</text><text class="cls-9" transform="translate(59.66 254.45)">素材制作</text><g class="cls-3"><text class="cls-14" transform="translate(510.53 220.76)">コ<tspan class="cls-15" x="56.4" y="0">ー</tspan></text><text class="cls-16" transform="translate(510.53 220.76)">コ<tspan class="cls-15" x="56.4" y="0">ー</tspan></text><text class="cls-17" transform="translate(628.13 220.76)">デ</text><text class="cls-18" transform="translate(628.13 220.76)">デ</text><text class="cls-19" transform="translate(673.73 220.76)">ィ</text><text class="cls-20" transform="translate(673.73 220.76)">ィ</text><text class="cls-21" transform="translate(727.13 220.76)">ン</text><text class="cls-22" transform="translate(727.13 220.76)">ン</text><text class="cls-8" transform="translate(779.33 220.76)">グ</text><text class="cls-9" transform="translate(779.33 220.76)">グ</text></g><g class="cls-3"><text class="cls-10" transform="translate(915.44 169.47)">レ</text><text class="cls-11" transform="translate(915.44 169.47)">レ</text><text class="cls-12" transform="translate(974.84 169.47)">ス</text><text class="cls-13" transform="translate(974.84 169.47)">ス</text><text class="cls-23" transform="translate(1036.04 169.47)">ポ<tspan class="cls-24" x="54" y="0">ン</tspan></text><text class="cls-25" transform="translate(1036.04 169.47)">ポ<tspan class="cls-24" x="54" y="0">ン</tspan></text><text class="cls-26" transform="translate(1148.24 169.47)">ジ</text><text class="cls-27" transform="translate(1148.24 169.47)">ジ</text><text class="cls-8" transform="translate(929.97 241.47)">ブ対応</text><text class="cls-9" transform="translate(929.97 241.47)">ブ対応</text></g></g></g><text></text><text class="cls-28" transform="translate(216.39 62.05)"><tspan xml:space="preserve">     </tspan><tspan class="cls-29" x="50.88" y="0">5 d</tspan><tspan class="cls-30" x="112.75" y="0">a</tspan><tspan class="cls-31" x="135.5" y="0">y</tspan><tspan class="cls-32" x="157.82" y="0">s</tspan></text><text></text><text class="cls-33" transform="translate(666.89 60.85)">3 <tspan class="cls-34" x="34.8" y="0">w</tspan><tspan x="69.65" y="0">eeks</tspan></text><text></text><text></text><text></text><text class="cls-35" transform="translate(1075.25 60.14)">4<tspan class="cls-32" x="24.62" y="0"> </tspan><tspan class="cls-36" x="34.8" y="0">w</tspan><tspan class="cls-32" x="69.65" y="0">eeks</tspan></text></g></g></svg>