<svg xmlns="http://www.w3.org/2000/svg" viewBox="0 0 1270 368.23"><defs><style>.cls-1,.cls-14,.cls-15,.cls-16{fill:#203655;}.cls-2,.cls-7{font-size:60px;fill:#edcbc3;font-family:KozGoPr6N-Regular-83pv-RKSJ-H, Kozuka Gothic Pr6N;}.cls-3{letter-spacing:-0.04em;}.cls-4{letter-spacing:-0.1em;}.cls-5{letter-spacing:-0.05em;}.cls-6{letter-spacing:-0.07em;}.cls-7{letter-spacing:-0.03em;}.cls-8{letter-spacing:-0.15em;}.cls-9{letter-spacing:-0.12em;}.cls-10{letter-spacing:-0.11em;}.cls-11{letter-spacing:0em;}.cls-12,.cls-13,.cls-16{font-size:48px;font-family:MyriadPro-Regular, Myriad Pro;}.cls-13{fill:#d0003d;}.cls-14,.cls-17{letter-spacing:-0.01em;}.cls-15,.cls-18{letter-spacing:-0.01em;}</style></defs><title>duration3_sp</title><g id="Layer_2" data-name="Layer 2"><g id="Layer_1-2" data-name="Layer 1"><g id="Layer_2-2" data-name="Layer 2"><g id="Layer_1-2-2" data-name="Layer 1-2"><polygon class="cls-1" points="0 367.95 549.62 367.95 596.11 238.37 546.29 108.78 0 367.95"/><polygon class="cls-1" points="565.43 108.78 613.72 238.37 565.43 367.95 932.7 367.95 961.53 238.37 923.09 108.78 565.43 108.78"/><polygon class="cls-1" points="937.23 108.78 977.59 238.37 946.84 367.95 1270 367.95 1270 108.78 937.23 108.78"/><path class="cls-1" d="M962,238.23l-39-129Z"/><polygon class="cls-1" points="923 109.23 962 238.23 933 368.23 0 368.23 0 109.23 923 109.23"/></g><text></text><text></text></g><text class="cls-2" transform="translate(178.81 210.58)">デ<tspan class="cls-3" x="60" y="0">ザ</tspan><tspan class="cls-4" x="117.6" y="0">イ</tspan><tspan class="cls-5" x="171.6" y="0">ン</tspan><tspan class="cls-6" x="228.6" y="0">カン</tspan><tspan x="340.2" y="0">プ</tspan></text><text></text><text></text><text class="cls-2" transform="translate(184.25 279.83)">素材制作</text><text class="cls-7" transform="translate(1011.62 192.16)">コー<tspan class="cls-8" x="116.4" y="0">デ</tspan><tspan class="cls-9" x="167.4" y="0">ィ</tspan><tspan class="cls-10"><tspan x="13.09" y="72">ン</tspan><tspan class="cls-11" x="66.5" y="72">グ</tspan></tspan></text><text></text><text class="cls-12" transform="translate(687.58 81.28)"><tspan xml:space="preserve">     </tspan></text><text></text><text class="cls-13" transform="translate(1095.78 91.92)">15<tspan class="cls-1" x="49.25" y="0" xml:space="preserve"> d</tspan><tspan class="cls-14" x="86.49" y="0">a</tspan><tspan class="cls-15" x="109.25" y="0">y</tspan><tspan class="cls-1" x="131.57" y="0">s</tspan></text><text class="cls-16" transform="translate(750.08 90.59)">10 d<tspan class="cls-17" x="86.49" y="0">a</tspan><tspan class="cls-18" x="109.25" y="0">y</tspan><tspan x="131.57" y="0">s</tspan></text></g></g></svg>